<?xml version="1.0" encoding="UTF-8"?>
<svg id="Capa_1" data-name="Capa 1" xmlns="http://www.w3.org/2000/svg" version="1.1" viewBox="0 0 1920 1080">
  <defs>
    <style>
      .cls-1 {
        fill: #f8f8f8;
      }

      .cls-1, .cls-2, .cls-3 {
        stroke-width: 0px;
      }

      .cls-2 {
        fill: #fcfcfc;
      }

      .cls-3 {
        fill: #fff;
      }
    </style>
  </defs>
  <path class="cls-3" d="M1110.94,601.49c0,62.96-.02,125.92.06,188.87,0,2.4-.25,3.16-2.98,3.16-126.06-.09-252.11-.09-378.17-.02-2.38,0-2.85-.58-2.85-2.89.06-126.04.06-252.08.01-378.12,0-2.15.24-2.96,2.77-2.96,126.18.08,252.36.08,378.54,0,2.78,0,2.65,1.09,2.65,3.09-.04,62.96-.04,125.92-.04,188.87ZM856.67,661.17c-.12-1.56-.23-2.3-.23-3.04,0-53.72.02-107.44-.07-161.17,0-2.99,1.08-3.55,3.71-3.4,9.38.55,17.5-2.52,24.02-9.27,5.06-5.23,11.09-7.04,18.25-6.95,37.98.49,75.96.79,113.93,1.12,17.87.16,35.73.21,53.6.38,5.46.05,10.37-1.26,14.55-4.89,6.4-5.55,8.63-14.2,5.71-22.13-3.15-8.54-10.45-13.25-20.55-13.17-55.47.44-110.94.81-166.41,1.45-7.9.09-14.33-1.94-19.88-7.61-6.07-6.21-13.69-8.75-22.38-8.69-20.49.12-40.98.04-61.47.04-.87,0-1.76-.08-2.62.05-3.01.44-4.79,2.16-4.75,5.26.04,3.1,1.87,4.77,4.89,5.14.99.12,2,.04,3,.04,19.74,0,39.48.18,59.22-.09,7.35-.1,13.42,1.95,18.53,7.21,6.58,6.78,14.78,9.24,24.11,9.15,56.09-.55,112.19-.99,168.28-1.44,6.39-.05,10.72,3.76,10.82,9.39.11,5.77-4.28,9.78-10.87,9.73-54.97-.42-109.94-.7-164.91-1.44-11.54-.16-21.38,2.32-29.47,10.88-4.65,4.92-10.85,5.78-17.31,5.36-.72-.05-1.73.09-1.77-.9-.1-2.49-.56-5.15.16-7.42.59-1.86,3.1-.74,4.74-.84,4.06-.26,6.43-2.08,6.48-5.26.05-3.33-2.32-5.41-6.71-5.2-3.49.17-5.3-.4-4.94-4.57.41-4.77.09-4.79,4.92-4.88.87-.02,1.77.02,2.61-.16,2.51-.53,3.9-2.22,4.08-4.7.18-2.34-.96-4.08-3.13-5.06-1.53-.69-3.18-.57-4.8-.57-16.74,0-33.49,0-50.23,0-3.75,0-7.5-.05-11.24.02-4.79.09-6.49,1.83-6.62,6.63-.04,1.37-.01,2.75-.01,4.12,0,78.83-.02,157.66.08,236.49,0,3.55-.79,4.61-4.48,4.55-13.24-.25-26.49-.13-39.73-.08-5.38.02-7.69,3.25-5.68,8.08,4.74,11.4,9.44,22.82,14.49,34.09,4.38,9.76,11.89,16.45,21.67,20.76,2.76,1.22,6.93.56,8.14,3.47,1.11,2.67.28,6.15.29,9.27.02,7.07,1.23,8.28,8.29,8.28,82.71,0,165.43,0,248.14,0,.75,0,1.5.02,2.25,0,3.89-.15,5.76-1.85,5.94-5.71.15-3.24.16-6.5.02-9.74-.1-2.19.5-3.31,2.82-3.9,13.65-3.5,22.98-12.01,28.42-24.94,4.3-10.23,8.68-20.43,12.98-30.66,2.45-5.84.41-8.97-5.85-8.99-10.12-.03-20.24-.05-30.36.02-2,.01-2.93-.26-3.34-2.67-4.76-28.06-24.58-46.5-52.86-49.27-2.15-.21-3.24-1-4.12-2.97-3.26-7.27-7.98-13.52-13.93-18.83-28.54-25.44-73.97-16.11-90.06,18.57-1.06,2.28-2.24,3.28-4.85,3.67-11.66,1.73-21.87,6.72-30.57,14.71-.8.73-1.59,1.46-2.95,2.7Z"/>
  <path class="cls-2" d="M856.67,661.17c1.35-1.24,2.15-1.97,2.95-2.7,8.7-8,18.9-12.98,30.57-14.71,2.61-.39,3.79-1.38,4.85-3.67,16.08-34.68,61.52-44.01,90.06-18.57,5.95,5.31,10.67,11.56,13.93,18.83.88,1.97,1.97,2.76,4.12,2.97,28.27,2.78,48.1,21.21,52.86,49.27.41,2.41,1.34,2.68,3.34,2.67,10.12-.07,20.24-.05,30.36-.02,6.26.02,8.3,3.15,5.85,8.99-4.3,10.23-8.68,20.43-12.98,30.66-5.44,12.93-14.77,21.44-28.42,24.94-2.32.59-2.92,1.71-2.82,3.9.14,3.24.13,6.5-.02,9.74-.18,3.86-2.05,5.56-5.94,5.71-.75.03-1.5,0-2.25,0-82.71,0-165.43,0-248.14,0-7.06,0-8.26-1.21-8.29-8.28-.01-3.12.82-6.6-.29-9.27-1.21-2.91-5.38-2.25-8.14-3.47-9.78-4.31-17.29-11-21.67-20.76-5.05-11.26-9.75-22.69-14.49-34.09-2.01-4.82.3-8.06,5.68-8.08,13.24-.05,26.49-.17,39.73.08,3.69.07,4.48-.99,4.48-4.55-.1-78.83-.08-157.66-.08-236.49,0-1.37-.03-2.75.01-4.12.14-4.8,1.84-6.53,6.62-6.63,3.75-.07,7.5-.02,11.24-.02,16.74,0,33.49,0,50.23,0,1.62,0,3.27-.12,4.8.57,2.17.98,3.3,2.71,3.13,5.06-.19,2.48-1.57,4.17-4.08,4.7-.84.18-1.74.14-2.61.16-4.83.09-4.51.11-4.92,4.88-.36,4.17,1.45,4.73,4.94,4.57,4.39-.21,6.77,1.87,6.71,5.2-.05,3.18-2.43,5-6.48,5.26-1.64.1-4.15-1.02-4.74.84-.71,2.27-.26,4.93-.16,7.42.04.99,1.04.86,1.77.9,6.46.42,12.65-.44,17.31-5.36,8.09-8.56,17.93-11.03,29.47-10.88,54.97.74,109.94,1.03,164.91,1.44,6.59.05,10.98-3.96,10.87-9.73-.11-5.62-4.43-9.44-10.82-9.39-56.09.45-112.19.89-168.28,1.44-9.33.09-17.53-2.36-24.11-9.15-5.11-5.27-11.18-7.31-18.53-7.21-19.74.27-39.48.09-59.22.09-1,0-2.01.08-3-.04-3.01-.37-4.85-2.03-4.89-5.14-.04-3.1,1.74-4.82,4.75-5.26.86-.13,1.75-.05,2.62-.05,20.49,0,40.98.08,61.47-.04,8.69-.05,16.32,2.49,22.38,8.69,5.55,5.67,11.99,7.71,19.88,7.61,55.47-.64,110.94-1.01,166.41-1.45,10.1-.08,17.4,4.62,20.55,13.17,2.92,7.92.69,16.58-5.71,22.13-4.18,3.62-9.1,4.94-14.55,4.89-17.87-.17-35.73-.22-53.6-.38-37.98-.33-75.96-.63-113.93-1.12-7.15-.09-13.18,1.72-18.25,6.95-6.53,6.74-14.64,9.81-24.02,9.27-2.62-.15-3.71.4-3.71,3.4.09,53.72.07,107.44.07,161.17,0,.74.11,1.48.23,3.04ZM919.37,705.73h-5.25c-51.98,0-103.96.02-155.94-.04-2.77,0-3.85.17-2.41,3.33,3.37,7.37,6.28,14.95,9.57,22.36,5.64,12.68,15.48,19.31,29.39,19.32,82.84.06,165.68.06,248.53,0,13.91,0,23.75-6.64,29.39-19.32,3.14-7.06,6.05-14.23,9.06-21.36q1.8-4.27-3.03-4.27c-53.1,0-106.21,0-159.31,0ZM918.62,768.7c39.23,0,78.46,0,117.69,0,1,0,2-.02,3-.01.87,0,1.27-.38,1.52-1.26,1.23-4.28-.13-6.22-4.45-6.22-78.21,0-156.42,0-234.63,0-1,0-2,0-3,.02-.63.02-1.12.17-1.44.88-1.58,3.44.29,6.59,4,6.59,39.1,0,78.21,0,117.31,0ZM809.93,574.91c0-38.96-.03-77.92.06-116.88,0-2.94-.57-4.05-3.84-4.15-3.91-.12-3.74,1.94-3.74,4.63.03,77.42.03,154.84.03,232.25,0,1,.01,2,.05,3,.02.65.25,1.12.94,1.41,3.55,1.52,6.51-.33,6.51-4.13,0-38.71,0-77.42,0-116.13ZM827.93,574.91c0-38.96-.03-77.92.06-116.88,0-2.95-.58-4.05-3.84-4.15-3.91-.12-3.74,1.95-3.74,4.63.03,77.42.02,154.84.03,232.25,0,1,.02,2,.05,3,.02.65.26,1.12.94,1.41,3.56,1.51,6.5-.33,6.5-4.14,0-38.71,0-77.42,0-116.13ZM838.43,574.52c0,39.08.03,78.17-.06,117.25,0,2.81.75,3.71,3.56,3.54,2.42-.15,4.17.09,4.08-3.41-.25-9.98-.09-19.98-.09-29.97,0-67.93-.01-135.86.04-203.78,0-2.77-.22-4.32-3.72-4.26-3.24.05-3.89,1.15-3.88,4.13.09,38.83.06,77.67.06,116.5ZM1041.91,695.14c3.78.87,3.93-.81,3.27-3.99-6.15-29.68-38.18-46.07-65.64-33.28-14.55,6.78-23.28,18.41-26.53,34.11-.21,1.02-1.19,2.46.6,3.19,3.31,1.35,6.41-.3,7.26-3.84,4.29-17.85,20.17-30.4,38.38-30.34,18.41.06,34.25,12.76,38.27,30.88.59,2.67,1.51,4.07,4.39,3.27ZM856.42,686.22c0,2.65-.08,4.4.03,6.15.06,1.1-.6,2.63,1.42,2.86,1.87.21,1.92-1.07,2.12-2.32.1-.61.3-1.21.45-1.82,4-16.45,17.45-28,34.79-29.88,15.83-1.72,31.72,7.29,38.87,21.98,1.6,3.28,2.7,6.71,3.35,10.27.25,1.38.85,1.96,2.22,1.78.92-.12,2.26.34,2.4-1.1.39-3.99,1.78-7.76-.05-12.02-14.07-32.66-58.12-38.59-80.14-10.66-3.63,4.61-6.84,9.33-5.46,14.77ZM947.47,617.43c-6.05.21-11.33.98-16.42,2.85-10.58,3.89-18.79,10.67-24.52,20.37-.44.74-1.94,1.72-.45,2.8,2.32,1.69,6.94.76,8.64-1.65,9.41-13.3,25.68-19.45,41.52-15.6,10.44,2.53,18.45,8.49,24.23,17.52,1.08,1.68,5.31,2.1,7.47.41,1.99-1.56-.23-2.89-.92-3.99-9.28-14.8-22.86-22.1-39.54-22.71ZM870.59,694.98c6.36.67,6.3.64,9.27-4.69,4.2-7.54,10.8-11.43,19.33-11.23,8.54.19,15.29,4.27,18.65,12.18,1.6,3.77,3.69,4.19,7,4.05,1.91-.08,2.31-.53,1.79-2.37-2.14-7.56-6.51-13.4-13.27-17.39-17.24-10.19-40.59.44-42.76,19.45ZM1027.51,695.24c-1.17-6.68-4.24-11.93-8.97-16.24-15.62-14.25-41.48-6.98-47.05,13.24-.24.88-1.43,2.06.05,2.9,2.28,1.3,6.74-.45,7.86-2.93,3.82-8.44,10.46-13.07,19.63-13.11,9.17-.05,16.05,4.4,19.67,12.93,1.16,2.73,2.52,3.62,5.22,3.24,1.09-.15,2.22-.03,3.59-.03ZM946.97,635.45c-8.71.35-15.99,3.43-21.62,9.92-.76.87-3.21,2.33-1.19,3.37,1.91.98,3.64,4.82,6.85,1.5,9.93-10.29,24.52-9.61,33.2,1.64,2.92,3.78,4.06-.51,5.93-1.03,2.44-.68.95-2.27.11-3.41-5.83-7.86-13.76-11.65-23.26-11.99ZM948.88,672.49c2.5-3.82,4.63-7.18,7.39-10.05,1.11-1.15.83-2.13.19-3.33-3.22-6.06-12.22-7.41-17.01-2.57-1.12,1.13-1.63,2.06-.22,3.4,3.72,3.54,6.64,7.72,9.65,12.54ZM908.02,695.04c-5.42-7.42-14.74-7.19-18.2,0h18.2ZM1008.43,695.06c-5.15-7.38-14.43-7.22-18.2,0h18.2Z"/>
  <path class="cls-3" d="M919.37,705.73c53.1,0,106.21,0,159.31,0q4.83,0,3.03,4.27c-3.01,7.12-5.91,14.29-9.06,21.36-5.64,12.68-15.48,19.31-29.39,19.32-82.84.06-165.68.06-248.53,0-13.91,0-23.75-6.63-29.39-19.32-3.29-7.41-6.2-14.99-9.57-22.36-1.44-3.16-.36-3.33,2.41-3.33,51.98.06,103.96.04,155.94.04h5.25ZM996.18,743.21c3.37,0,6.75.05,10.12-.01,3.75-.07,6.08-2.06,6.14-5.13.07-3.1-2.26-5.29-5.94-5.32-7-.07-13.99-.07-20.99,0-3.44.04-5.7,2.17-5.76,5.11-.06,3.1,2.25,5.25,5.93,5.33,3.5.08,7,.02,10.49.02Z"/>
  <path class="cls-3" d="M918.62,768.7c-39.1,0-78.21,0-117.31,0-3.7,0-5.58-3.15-4-6.59.33-.71.81-.86,1.44-.88,1-.03,2-.02,3-.02,78.21,0,156.42,0,234.63,0,4.32,0,5.68,1.94,4.45,6.22-.25.87-.65,1.26-1.52,1.26-1,0-2,.01-3,.01-39.23,0-78.46,0-117.69,0Z"/>
  <path class="cls-3" d="M809.93,574.91c0,38.71,0,77.42,0,116.13,0,3.8-2.95,5.65-6.51,4.13-.69-.29-.92-.76-.94-1.41-.03-1-.05-2-.05-3,0-77.42,0-154.84-.03-232.25,0-2.68-.17-4.74,3.74-4.63,3.27.1,3.85,1.21,3.84,4.15-.09,38.96-.06,77.92-.06,116.88Z"/>
  <path class="cls-3" d="M827.93,574.91c0,38.71,0,77.42,0,116.13,0,3.81-2.94,5.65-6.5,4.14-.69-.29-.92-.76-.94-1.41-.03-1-.05-2-.05-3,0-77.42,0-154.84-.03-232.25,0-2.68-.18-4.75,3.74-4.63,3.26.1,3.85,1.2,3.84,4.15-.09,38.96-.06,77.92-.06,116.88Z"/>
  <path class="cls-3" d="M838.42,574.52c0-38.83.03-77.67-.06-116.5,0-2.98.64-4.07,3.88-4.13,3.5-.06,3.72,1.49,3.72,4.26-.06,67.93-.04,135.86-.04,203.78,0,9.99-.16,19.98.09,29.97.09,3.5-1.67,3.26-4.08,3.41-2.81.17-3.57-.72-3.56-3.54.09-39.08.06-78.17.06-117.25Z"/>
  <path class="cls-3" d="M1041.91,695.14c-2.88.8-3.8-.6-4.39-3.27-4.02-18.12-19.85-30.81-38.27-30.88-18.21-.06-34.09,12.49-38.38,30.34-.85,3.54-3.95,5.19-7.26,3.84-1.79-.73-.81-2.18-.6-3.19,3.25-15.7,11.98-27.32,26.53-34.11,27.46-12.8,59.49,3.6,65.64,33.28.66,3.18.51,4.87-3.27,3.99Z"/>
  <path class="cls-3" d="M856.42,686.22c-1.38-5.43,1.83-10.16,5.46-14.77,22.02-27.93,66.07-22,80.14,10.66,1.84,4.26.44,8.03.05,12.02-.14,1.44-1.48.97-2.4,1.1-1.37.18-1.97-.4-2.22-1.78-.65-3.57-1.75-6.99-3.35-10.27-7.15-14.69-23.04-23.69-38.87-21.98-17.34,1.88-30.79,13.43-34.79,29.88-.15.61-.35,1.2-.45,1.82-.2,1.26-.26,2.53-2.12,2.32-2.02-.23-1.36-1.77-1.42-2.86-.1-1.74-.03-3.49-.03-6.15Z"/>
  <path class="cls-3" d="M947.47,617.43c16.68.61,30.26,7.91,39.54,22.71.69,1.1,2.9,2.43.92,3.99-2.15,1.69-6.39,1.27-7.47-.41-5.78-9.03-13.78-14.98-24.23-17.52-15.85-3.84-32.11,2.3-41.52,15.6-1.7,2.41-6.32,3.34-8.64,1.65-1.49-1.08.02-2.06.45-2.8,5.73-9.7,13.94-16.48,24.52-20.37,5.09-1.87,10.38-2.64,16.42-2.85Z"/>
  <path class="cls-3" d="M870.59,694.98c2.18-19.01,25.53-29.64,42.76-19.45,6.75,3.99,11.12,9.83,13.27,17.39.52,1.84.11,2.29-1.79,2.37-3.3.14-5.39-.28-7-4.05-3.36-7.91-10.11-11.99-18.65-12.18-8.53-.19-15.12,3.69-19.33,11.23-2.97,5.33-2.91,5.36-9.27,4.69Z"/>
  <path class="cls-3" d="M1027.51,695.24c-1.37,0-2.5-.13-3.59.03-2.7.38-4.06-.51-5.22-3.24-3.62-8.53-10.5-12.98-19.67-12.93-9.18.05-15.81,4.68-19.63,13.11-1.12,2.48-5.58,4.23-7.86,2.93-1.48-.84-.29-2.02-.05-2.9,5.57-20.22,31.43-27.49,47.05-13.24,4.73,4.32,7.8,9.57,8.97,16.24Z"/>
  <path class="cls-3" d="M946.97,635.45c9.5.33,17.43,4.13,23.26,11.99.85,1.14,2.34,2.73-.11,3.41-1.87.52-3.01,4.81-5.93,1.03-8.67-11.24-23.26-11.93-33.2-1.64-3.21,3.32-4.94-.52-6.85-1.5-2.02-1.04.43-2.5,1.19-3.37,5.63-6.49,12.92-9.57,21.62-9.92Z"/>
  <path class="cls-3" d="M948.88,672.49c-3.01-4.82-5.93-9.01-9.65-12.54-1.41-1.34-.89-2.27.22-3.4,4.79-4.85,13.79-3.49,17.01,2.57.63,1.2.92,2.18-.19,3.33-2.76,2.86-4.89,6.23-7.39,10.05Z"/>
  <path class="cls-3" d="M908.02,695.04h-18.2c3.47-7.19,12.78-7.42,18.2,0Z"/>
  <path class="cls-3" d="M1008.43,695.06h-18.2c3.78-7.22,13.05-7.38,18.2,0Z"/>
  <path class="cls-1" d="M996.18,743.21c-3.5,0-7,.06-10.49-.02-3.67-.08-5.99-2.23-5.93-5.33.06-2.95,2.32-5.07,5.76-5.11,7-.08,13.99-.08,20.99,0,3.68.04,6,2.23,5.94,5.32-.07,3.08-2.39,5.07-6.14,5.13-3.37.06-6.75.01-10.12.01Z"/>
</svg>